<svg width="260" height="260" viewBox="0 0 260 260" fill="none" xmlns="http://www.w3.org/2000/svg">
<path d="M41.21 130.4C41.21 112.821 45.1353 97.12 52.986 83.296C61.0073 69.3013 71.8447 58.464 85.498 50.784C99.322 42.9333 114.767 39.008 131.834 39.008C151.802 39.008 169.295 44.128 184.314 54.368C199.333 64.608 209.829 78.7733 215.802 96.864H174.586C170.49 88.3307 164.687 81.9307 157.178 77.664C149.839 73.3973 141.306 71.264 131.578 71.264C121.167 71.264 111.866 73.7387 103.674 78.688C95.6527 83.4667 89.338 90.2933 84.73 99.168C80.2927 108.043 78.074 118.453 78.074 130.4C78.074 142.176 80.2927 152.587 84.73 161.632C89.338 170.507 95.6527 177.419 103.674 182.368C111.866 187.147 121.167 189.536 131.578 189.536C141.306 189.536 149.839 187.403 157.178 183.136C164.687 178.699 170.49 172.213 174.586 163.68H215.802C209.829 181.941 199.333 196.192 184.314 206.432C169.466 216.501 151.973 221.536 131.834 221.536C114.767 221.536 99.322 217.696 85.498 210.016C71.8447 202.165 61.0073 191.328 52.986 177.504C45.1353 163.68 41.21 147.979 41.21 130.4Z" fill="#2563EB"/>
</svg>
